HIERARCHY
ROOT Hips
{
	OFFSET -0.001795 -0.223333 0.028219
	CHANNELS 6 Xposition Yposition Zposition Zrotation Yrotation Xrotation 
	JOINT LeftUpLeg
	{
		OFFSET 0.069520 -0.091406 -0.006815
		CHANNELS 3 Zrotation Yrotation Xrotation
		JOINT LeftLeg
		{
			OFFSET 0.034277 -0.375199 -0.004496
			CHANNELS 3 Zrotation Yrotation Xrotation
			JOINT LeftFoot
			{
				OFFSET -0.013596 -0.397961 -0.043693
				CHANNELS 3 Zrotation Yrotation Xrotation
				JOINT LeftToe
				{
					OFFSET 0.026358 -0.055791 0.119288
					CHANNELS 3 Zrotation Yrotation Xrotation
					End Site
					{
						OFFSET 0.000000 0.000000 0.000000
					}
				}
			}
		}
	}
	JOINT RightUpLeg
	{
		OFFSET -0.067670 -0.090522 -0.004320
		CHANNELS 3 Zrotation Yrotation Xrotation
		JOINT RightLeg
		{
			OFFSET -0.038290 -0.382569 -0.008850
			CHANNELS 3 Zrotation Yrotation Xrotation
			JOINT RightFoot
			{
				OFFSET 0.015774 -0.398415 -0.042312
				CHANNELS 3 Zrotation Yrotation Xrotation
				JOINT RightToe
				{
					OFFSET -0.025372 -0.048144 0.123348
					CHANNELS 3 Zrotation Yrotation Xrotation
					End Site
					{
						OFFSET 0.000000 0.000000 0.000000
					}
				}
			}
		}
	}
	JOINT Spine
	{
		OFFSET -0.002533 0.108963 -0.026696
		CHANNELS 3 Zrotation Yrotation Xrotation
		JOINT Spine1
		{
			OFFSET 0.005487 0.135180 0.001092
			CHANNELS 3 Zrotation Yrotation Xrotation
			JOINT Spine2
			{
				OFFSET 0.001457 0.052922 0.025425
				CHANNELS 3 Zrotation Yrotation Xrotation
				JOINT Neck
				{
					OFFSET -0.002778 0.213870 -0.042857
					CHANNELS 3 Zrotation Yrotation Xrotation
					JOINT Head
					{
						OFFSET 0.005152 0.064970 0.051349
						CHANNELS 3 Zrotation Yrotation Xrotation
						End Site
						{
							OFFSET 0.000000 0.000000 0.000000
						}
					}
				}
				JOINT LeftShoulder
				{
					OFFSET 0.078845 0.121749 -0.034090
					CHANNELS 3 Zrotation Yrotation Xrotation
					JOINT LeftArm
					{
						OFFSET 0.090977 0.030469 -0.008868
						CHANNELS 3 Zrotation Yrotation Xrotation
						JOINT LeftForeArm
						{
							OFFSET 0.259612 -0.012772 -0.027456
							CHANNELS 3 Zrotation Yrotation Xrotation
							JOINT LeftHand
							{
								OFFSET 0.249234 0.008986 -0.001171
								CHANNELS 3 Zrotation Yrotation Xrotation
								End Site
								{
									OFFSET 0.000000 0.000000 0.000000
								}
							}
						}
					}
				}
				JOINT RightShoulder
				{
					OFFSET -0.081759 0.118833 -0.038615
					CHANNELS 3 Zrotation Yrotation Xrotation
					JOINT RightArm
					{
						OFFSET -0.096012 0.032551 -0.009143
						CHANNELS 3 Zrotation Yrotation Xrotation
						JOINT RightForeArm
						{
							OFFSET -0.253742 -0.013329 -0.021401
							CHANNELS 3 Zrotation Yrotation Xrotation
							JOINT RightHand
							{
								OFFSET -0.255298 0.007772 -0.005559
								CHANNELS 3 Zrotation Yrotation Xrotation
								End Site
								{
									OFFSET 0.000000 0.000000 0.000000
								}
							}
						}
					}
				}
			}
		}
	}
}
MOTION
Frames: 18
Frame Time: 0.050000
0.000000 0.946509 0.000000 -1.696907 -0.108861 7.341383 6.131093 -0.371284 -4.930709 1.378093 0.171436 -6.889383 2.173620 8.219144 12.413502 0.000000 0.000000 0.000000 -4.559515 0.654636 -7.624098 -0.818962 -0.021013 -2.242890 -1.563436 -7.824885 11.534286 0.000000 0.000000 0.000000 3.174532 0.216371 -4.709101 -0.909296 0.484181 -3.376600 -0.912843 1.673342 3.320666 3.073635 -0.991834 -11.709734 0.000000 0.000000 0.000000 -17.863786 -0.824624 -1.739974 -55.024785 -7.096998 -3.079061 -11.311525 -16.988393 2.242719 0.000000 0.000000 0.000000 16.856665 -0.977643 -1.723691 58.558701 7.601067 -1.759681 8.293457 16.311853 1.592639 0.000000 0.000000 0.000000 
0.000057 0.945640 0.001303 -1.898516 -1.298232 7.759168 5.619064 -0.347724 -4.385902 2.888862 0.141386 -7.570620 2.458309 8.497767 12.233751 0.000000 0.000000 0.000000 -4.489945 0.700821 -8.079844 -0.772828 -0.000128 -1.664865 -0.543802 -5.936122 11.253503 0.000000 0.000000 0.000000 3.559117 0.247850 -5.086520 -1.671043 0.805664 -3.695026 -0.291517 2.191141 2.967065 2.648347 -0.747561 -11.598437 0.000000 0.000000 0.000000 -19.175212 0.049471 -2.304322 -54.705565 -7.321609 -2.916163 -11.736001 -16.931169 2.304553 0.000000 0.000000 0.000000 16.032957 -1.363394 -1.921019 59.669584 7.049542 -1.994460 8.997551 16.874032 1.736509 0.000000 0.000000 0.000000 
0.000117 0.945551 0.002198 -1.606894 -0.409141 7.583968 5.285388 -0.348231 -4.167724 3.100968 0.118201 -7.316136 1.945507 7.692221 11.903004 0.000000 0.000000 0.000000 -4.596985 0.675666 -7.900271 -1.083920 0.048535 -1.259950 -1.184509 -6.965195 10.928075 0.000000 0.000000 0.000000 3.033713 0.218476 -4.766596 -0.826483 0.472334 -4.983359 -1.045664 1.621046 3.243210 2.531807 -0.775307 -10.591712 0.000000 0.000000 0.000000 -18.876564 -0.482620 -2.000305 -54.854249 -6.856108 -3.165784 -11.694143 -16.654927 2.257790 0.000000 0.000000 0.000000 17.576791 -0.377952 -1.518712 58.152539 6.516053 -2.281211 8.536344 17.256108 1.724688 0.000000 0.000000 0.000000 
0.000207 0.945250 0.002937 -1.924978 -0.597759 7.944528 5.359581 -0.360135 -4.392453 3.528815 0.116156 -7.559607 2.017532 7.879432 12.287308 0.000000 0.000000 0.000000 -4.448131 0.743727 -8.833209 -0.812215 0.048050 -0.732523 -1.265089 -7.185905 11.060646 0.000000 0.000000 0.000000 3.116101 0.248868 -5.230271 -1.270662 0.652366 -4.761099 0.000055 0.756233 2.412336 1.995361 -0.655928 -9.008425 0.000000 0.000000 0.000000 -18.913867 0.331999 -2.166279 -55.708720 -7.258002 -2.979146 -11.142241 -16.205079 2.147673 0.000000 0.000000 0.000000 16.491976 -0.091995 -1.564294 58.382980 6.191596 -2.335581 9.507191 17.511634 1.842354 0.000000 0.000000 0.000000 
0.000256 0.945399 0.003452 -1.735840 0.163073 7.872666 5.090423 -0.366102 -4.332903 3.791021 0.114209 -7.659919 1.457568 7.052604 12.238517 0.000000 0.000000 0.000000 -4.664321 0.714661 -8.622557 -0.883782 0.041023 -1.054022 -1.530233 -7.705989 11.456470 0.000000 0.000000 0.000000 2.728196 0.259116 -5.498328 -0.773924 0.451286 -4.647758 -0.180836 0.117711 2.267119 1.446215 -0.303482 -8.907360 0.000000 0.000000 0.000000 -19.164272 0.249002 -2.115384 -55.732517 -7.865625 -2.687859 -11.784522 -15.795842 2.182210 0.000000 0.000000 0.000000 16.249217 -0.155531 -1.611381 58.463309 6.160406 -2.340043 10.073204 17.834400 1.953290 0.000000 0.000000 0.000000 
0.000368 0.945713 0.003686 -1.753818 0.128494 8.040834 4.886788 -0.376351 -4.498161 4.149168 0.101398 -7.671254 1.585383 7.258460 12.246857 0.000000 0.000000 0.000000 -4.672278 0.737961 -8.988878 -0.937398 0.049342 -0.983354 -1.478296 -7.673473 11.688719 0.000000 0.000000 0.000000 2.544280 0.279614 -5.870627 -0.756856 0.442504 -4.585001 0.172355 -0.121413 2.109783 1.579384 -0.461370 -8.374716 0.000000 0.000000 0.000000 -19.250905 0.548540 -2.207481 -55.987724 -8.094264 -2.585715 -11.591879 -15.784485 2.162752 0.000000 0.000000 0.000000 15.930210 0.061047 -1.543815 58.662294 6.528969 -2.148278 10.152771 17.617344 1.924794 0.000000 0.000000 0.000000 
0.000426 0.945723 0.003643 -1.678601 0.483677 8.030772 4.702829 -0.381475 -4.515112 4.224831 0.101834 -7.704911 1.442066 7.117935 12.426177 0.000000 0.000000 0.000000 -4.714078 0.730057 -8.953508 -0.950248 0.049612 -1.017730 -1.443892 -7.566193 11.716300 0.000000 0.000000 0.000000 2.322267 0.281112 -5.987931 -0.670408 0.405458 -4.346225 0.197706 -0.639554 1.972954 1.432592 -0.360253 -8.600875 0.000000 0.000000 0.000000 -19.163028 0.728637 -2.217177 -56.062502 -8.122144 -2.573077 -12.006096 -15.797268 2.230434 0.000000 0.000000 0.000000 15.839230 0.318011 -1.476692 58.689373 6.545767 -2.128564 10.357094 17.903053 1.976710 0.000000 0.000000 0.000000 
0.000475 0.945799 0.003469 -1.712593 0.500820 8.193413 4.602456 -0.396740 -4.769532 4.380757 0.090045 -7.617695 1.563827 7.226185 12.083119 0.000000 0.000000 0.000000 -4.682948 0.742686 -9.119120 -0.884069 0.042078 -1.044115 -1.486451 -7.590179 11.505937 0.000000 0.000000 0.000000 2.229318 0.286507 -6.123514 -0.628335 0.386647 -4.297381 0.282813 -0.637730 1.773977 1.591287 -0.515269 -8.045407 0.000000 0.000000 0.000000 -19.135704 0.703394 -2.204949 -55.936712 -8.186217 -2.517159 -12.092478 -15.552506 2.204714 0.000000 0.000000 0.000000 15.779813 0.370746 -1.450673 58.755669 6.741787 -2.011556 10.508732 17.583429 1.955231 0.000000 0.000000 0.000000 
0.000484 0.945921 0.003272 -1.769781 0.609842 8.219098 4.668965 -0.399548 -4.812244 4.218547 0.100606 -7.676348 1.573900 7.262864 12.111949 0.000000 0.000000 0.000000 -4.623309 0.745659 -9.144289 -0.868924 0.033582 -1.196799 -1.351726 -7.320497 11.523117 0.000000 0.000000 0.000000 2.179709 0.284890 -6.124091 -0.584987 0.369291 -4.295536 0.354742 -0.726318 1.705152 1.739697 -0.627113 -7.951592 0.000000 0.000000 0.000000 -18.822705 0.700793 -2.160886 -56.045227 -8.241823 -2.486680 -12.145270 -14.988462 2.127788 0.000000 0.000000 0.000000 15.859216 0.424695 -1.442938 58.537490 6.894072 -1.922029 10.472447 17.219799 1.902689 0.000000 0.000000 0.000000 
0.000498 0.946074 0.003107 -1.800578 0.661760 8.246732 4.691830 -0.401487 -4.840217 4.139197 0.101862 -7.649003 1.625926 7.330503 12.026866 0.000000 0.000000 0.000000 -4.635919 0.745189 -9.148577 -0.798921 0.018170 -1.389256 -1.257549 -7.187684 11.729709 0.000000 0.000000 0.000000 2.224883 0.287476 -6.163086 -0.558551 0.360162 -4.368209 0.250664 -0.637697 1.801638 1.847244 -0.704741 -7.834713 0.000000 0.000000 0.000000 -18.670671 0.540366 -2.089641 -55.873090 -8.413354 -2.404460 -12.168026 -14.397850 2.039959 0.000000 0.000000 0.000000 15.985739 0.538368 -1.366161 58.301892 7.107891 -1.819396 10.541386 16.909612 1.878068 0.000000 0.000000 0.000000 
0.000527 0.946198 0.002956 -1.776066 0.587218 8.237064 4.782754 -0.402434 -4.888121 4.046992 0.096147 -7.518522 1.619398 7.299922 11.985989 0.000000 0.000000 0.000000 -4.721756 0.745015 -9.187676 -0.824249 0.012534 -1.555860 -1.116069 -6.955128 11.835786 0.000000 0.000000 0.000000 2.236798 0.284004 -6.094946 -0.603960 0.379135 -4.392586 0.228645 -0.554736 1.804822 1.948425 -0.767710 -7.877808 0.000000 0.000000 0.000000 -18.687976 0.541762 -2.103244 -55.617269 -8.268951 -2.461652 -12.063098 -14.086978 1.979951 0.000000 0.000000 0.000000 15.992576 0.422891 -1.415901 58.312611 7.350566 -1.699481 10.489037 16.412492 1.809198 0.000000 0.000000 0.000000 
0.000607 0.946228 0.002768 -1.794486 0.649384 8.234762 4.961857 -0.407661 -5.017986 3.865888 0.094309 -7.383796 1.525272 7.161930 12.017785 0.000000 0.000000 0.000000 -4.839541 0.734582 -9.094444 -0.835403 0.006454 -1.708753 -1.032047 -6.855314 12.091833 0.000000 0.000000 0.000000 2.362906 0.281900 -6.033219 -0.698475 0.420951 -4.458660 0.190114 -0.548190 1.824413 2.010836 -0.780136 -8.171768 0.000000 0.000000 0.000000 -18.590523 0.639954 -2.154776 -55.524656 -8.215254 -2.483271 -12.069713 -13.842711 1.943941 0.000000 0.000000 0.000000 15.810728 0.305650 -1.445464 58.339495 7.310638 -1.722588 10.675305 16.097103 1.793930 0.000000 0.000000 0.000000 
0.000707 0.946303 0.002538 -1.835776 0.473774 8.224028 5.042484 -0.408866 -5.099261 3.864196 0.079658 -7.171915 1.507486 7.081827 11.906141 0.000000 0.000000 0.000000 -4.872784 0.737304 -9.130126 -0.807218 0.006917 -1.639757 -0.944471 -6.683828 11.986649 0.000000 0.000000 0.000000 2.492080 0.280012 -5.952493 -0.713920 0.426340 -4.496332 0.124313 -0.232954 1.770534 2.220473 -0.902827 -8.237370 0.000000 0.000000 0.000000 -18.634776 0.415342 -2.096934 -55.283927 -8.042073 -2.543256 -11.981816 -13.845822 1.928683 0.000000 0.000000 0.000000 15.836624 0.166410 -1.472045 58.214162 7.246657 -1.744077 10.659302 15.857696 1.766601 0.000000 0.000000 0.000000 
0.000811 0.946325 0.002276 -1.890152 0.394749 8.152205 5.224978 -0.407849 -5.159160 3.806901 0.062910 -6.894253 1.402418 6.897706 11.892234 0.000000 0.000000 0.000000 -4.867111 0.739834 -9.167479 -0.824505 0.012699 -1.546568 -0.874530 -6.549807 11.948706 0.000000 0.000000 0.000000 2.586686 0.273212 -5.804427 -0.709732 0.425132 -4.566929 0.123132 -0.087879 1.791444 2.132174 -0.824261 -8.365060 0.000000 0.000000 0.000000 -18.655606 0.371411 -2.099726 -55.236493 -7.984463 -2.567119 -11.993634 -13.884512 1.933504 0.000000 0.000000 0.000000 15.734970 0.271986 -1.386897 58.102545 7.237936 -1.747473 10.726869 15.721537 1.759830 0.000000 0.000000 0.000000 
0.000897 0.946527 0.001974 -1.865347 0.390584 8.136302 5.329451 -0.412273 -5.293955 3.777776 0.058305 -6.806598 1.346259 6.844304 12.034769 0.000000 0.000000 0.000000 -4.914878 0.741852 -9.238569 -0.877753 0.023822 -1.412445 -0.890806 -6.544563 11.820004 0.000000 0.000000 0.000000 2.629064 0.267570 -5.703804 -0.715065 0.427614 -4.580676 0.099095 0.006728 1.860988 2.162675 -0.811076 -8.657627 0.000000 0.000000 0.000000 -18.604798 0.358326 -2.108074 -55.183685 -7.953332 -2.583037 -12.062041 -14.054210 1.964626 0.000000 0.000000 0.000000 15.707104 0.371208 -1.312199 57.910170 7.378169 -1.681078 10.786287 15.514064 1.742861 0.000000 0.000000 0.000000 
0.000936 0.946700 0.001628 -1.904785 0.245306 8.101799 5.498277 -0.410258 -5.349513 3.856987 0.034572 -6.518860 1.279620 6.700611 11.970900 0.000000 0.000000 0.000000 -4.843084 0.751316 -9.332663 -0.968927 0.042691 -1.186347 -0.804806 -6.364001 11.693607 0.000000 0.000000 0.000000 2.708632 0.258251 -5.522317 -0.773339 0.453914 -4.764487 0.128628 0.231743 2.085915 2.128676 -0.736429 -9.119275 0.000000 0.000000 0.000000 -18.610938 0.222221 -2.063524 -55.127765 -7.933247 -2.606112 -12.158478 -14.307774 2.010962 0.000000 0.000000 0.000000 15.742487 0.641149 -1.144767 57.869072 7.415808 -1.684490 10.601146 15.687903 1.748518 0.000000 0.000000 0.000000 
0.000925 0.946904 0.001295 -1.922004 0.138410 8.041192 5.655760 -0.409580 -5.434031 3.771460 0.013507 -6.149562 1.293714 6.650803 11.753455 0.000000 0.000000 0.000000 -4.839727 0.757544 -9.428066 -1.058586 0.066384 -0.868271 -0.855378 -6.424507 11.511875 0.000000 0.000000 0.000000 2.702904 0.247861 -5.345565 -0.727150 0.434537 -4.825265 0.159488 0.419863 2.129701 2.307812 -0.804297 -9.566437 0.000000 0.000000 0.000000 -18.489849 0.152671 -2.041073 -55.193519 -7.765054 -2.688267 -12.440794 -14.597006 2.086091 0.000000 0.000000 0.000000 15.790712 0.795279 -1.043931 57.717019 7.482599 -1.654497 10.718956 15.655143 1.761738 0.000000 0.000000 0.000000 
0.000896 0.947114 0.001034 -1.975686 -0.066452 8.074258 5.836573 -0.408400 -5.522402 3.760816 0.004465 -6.019046 1.318533 6.656505 11.718557 0.000000 0.000000 0.000000 -4.851626 0.766546 -9.538699 -1.099219 0.075941 -0.743499 -0.745872 -6.216405 11.430027 0.000000 0.000000 0.000000 2.703336 0.228108 -5.030787 -0.758423 0.450700 -5.129420 0.278275 0.590961 2.215312 2.370591 -0.774398 -10.263392 0.000000 0.000000 0.000000 -18.328153 0.213821 -2.059116 -55.310778 -7.736344 -2.712908 -12.840205 -14.723674 2.155723 0.000000 0.000000 0.000000 15.743289 0.860275 -0.998095 57.680343 7.401668 -1.699868 10.835333 15.832296 1.800274 0.000000 0.000000 0.000000 
